<?xml version="1.0" encoding="UTF-8"?><svg id="a" xmlns="http://www.w3.org/2000/svg" xmlns:xlink="http://www.w3.org/1999/xlink" viewBox="0 0 239.9 262.19"><defs><style>.d{mask:url(#b);}.e{filter:url(#c);}.f{font-family:Rift-Light, Rift;font-size:12px;}.f,.g{fill:#07a4db;}</style><filter id="c" color-interpolation-filters="sRGB" filterUnits="userSpaceOnUse"><feColorMatrix values="-1 0 0 0 1 0 -1 0 0 1 0 0 -1 0 1 0 0 0 1 0"/></filter><mask id="b" x="42.65" y="43.46" width="163" height="218.73" maskUnits="userSpaceOnUse"><g style="filter:url(#c);"><circle cx="124.15" cy="124.96" r="81.5"/></g></mask></defs><text transform="translate(48.18 154.61) rotate(-109.55)" style="fill:#07a4db; font-family:Rift-Light, Rift; font-size:12px;"><tspan x="0" y="0">0</tspan></text><text transform="translate(46.49 149.76) rotate(-106.9)" style="fill:#07a4db; font-family:Rift-Light, Rift; font-size:12px;"><tspan x="0" y="0">1</tspan></text><text transform="translate(45.79 147.46) rotate(-105.2)" style="fill:#07a4db; font-family:Rift-Light, Rift; font-size:12px;"><tspan x="0" y="0">1</tspan></text><text transform="translate(45.14 145.2) rotate(-102.55)" style="fill:#07a4db; font-family:Rift-Light, Rift; font-size:12px;"><tspan x="0" y="0">0</tspan></text><text transform="translate(44.03 140.23) rotate(-98.94)" style="fill:#07a4db; font-family:Rift-Light, Rift; font-size:12px;"><tspan x="0" y="0">0</tspan></text><text transform="translate(43.26 135.14) rotate(-96.28)" style="fill:#07a4db; font-family:Rift-Light, Rift; font-size:12px;"><tspan x="0" y="0">1</tspan></text><text transform="translate(42.97 132.8) rotate(-93.64)" style="fill:#07a4db; font-family:Rift-Light, Rift; font-size:12px;"><tspan x="0" y="0">0</tspan></text><text transform="translate(42.67 127.68) rotate(-91)" style="fill:#07a4db; font-family:Rift-Light, Rift; font-size:12px;"><tspan x="0" y="0">1</tspan></text><text transform="translate(42.63 125.27) rotate(-89.49)" style="fill:#07a4db; font-family:Rift-Light, Rift; font-size:12px;"><tspan x="0" y="0"> </tspan></text><text transform="translate(42.61 123.45) rotate(-87.05)" style="fill:#07a4db; font-family:Rift-Light, Rift; font-size:12px;"><tspan x="0" y="0">0</tspan></text><text transform="translate(42.91 118.29) rotate(-84.4)" style="fill:#07a4db; font-family:Rift-Light, Rift; font-size:12px;"><tspan x="0" y="0">1</tspan></text><text transform="translate(43.14 115.92) rotate(-82.73)" style="fill:#07a4db; font-family:Rift-Light, Rift; font-size:12px;"><tspan x="0" y="0">1</tspan></text><text transform="translate(43.4 113.59) rotate(-80.11)" style="fill:#07a4db; font-family:Rift-Light, Rift; font-size:12px;"><tspan x="0" y="0">0</tspan></text><text transform="translate(44.28 108.56) rotate(-76.55)" style="fill:#07a4db; font-family:Rift-Light, Rift; font-size:12px;"><tspan x="0" y="0">0</tspan></text><text transform="translate(45.46 103.59) rotate(-72.98)" style="fill:#07a4db; font-family:Rift-Light, Rift; font-size:12px;"><tspan x="0" y="0">0</tspan></text><text transform="translate(46.95 98.71) rotate(-69.41)" style="fill:#07a4db; font-family:Rift-Light, Rift; font-size:12px;"><tspan x="0" y="0">0</tspan></text><text transform="translate(48.79 93.89) rotate(-66.78)" style="fill:#07a4db; font-family:Rift-Light, Rift; font-size:12px;"><tspan x="0" y="0">1</tspan></text><text transform="translate(49.74 91.68) rotate(-65.28)" style="fill:#07a4db; font-family:Rift-Light, Rift; font-size:12px;"><tspan x="0" y="0"> </tspan></text><text transform="translate(50.47 90.02) rotate(-62.85)" style="fill:#07a4db; font-family:Rift-Light, Rift; font-size:12px;"><tspan x="0" y="0">0</tspan></text><text transform="translate(52.84 85.45) rotate(-60.21)" style="fill:#07a4db; font-family:Rift-Light, Rift; font-size:12px;"><tspan x="0" y="0">1</tspan></text><text transform="translate(54.03 83.38) rotate(-58.53)" style="fill:#07a4db; font-family:Rift-Light, Rift; font-size:12px;"><tspan x="0" y="0">1</tspan></text><text transform="translate(55.28 81.33) rotate(-56.83)" style="fill:#07a4db; font-family:Rift-Light, Rift; font-size:12px;"><tspan x="0" y="0">1</tspan></text><text transform="translate(56.54 79.35) rotate(-54.2)" style="fill:#07a4db; font-family:Rift-Light, Rift; font-size:12px;"><tspan x="0" y="0">0</tspan></text><text transform="translate(59.53 75.19) rotate(-50.58)" style="fill:#07a4db; font-family:Rift-Light, Rift; font-size:12px;"><tspan x="0" y="0">0</tspan></text><text transform="translate(62.81 71.25) rotate(-47.93)" style="fill:#07a4db; font-family:Rift-Light, Rift; font-size:12px;"><tspan x="0" y="0">1</tspan></text><text transform="translate(64.41 69.48) rotate(-46.24)" style="fill:#07a4db; font-family:Rift-Light, Rift; font-size:12px;"><tspan x="0" y="0">1</tspan></text><text transform="translate(66.07 67.75) rotate(-44.73)" style="fill:#07a4db; font-family:Rift-Light, Rift; font-size:12px;"><tspan x="0" y="0"> </tspan></text><text transform="translate(67.35 66.42) rotate(-42.25)" style="fill:#07a4db; font-family:Rift-Light, Rift; font-size:12px;"><tspan x="0" y="0">0</tspan></text><text transform="translate(71.18 62.99) rotate(-39.6)" style="fill:#07a4db; font-family:Rift-Light, Rift; font-size:12px;"><tspan x="0" y="0">1</tspan></text><text transform="translate(73.02 61.47) rotate(-37.91)" style="fill:#07a4db; font-family:Rift-Light, Rift; font-size:12px;"><tspan x="0" y="0">1</tspan></text><text transform="translate(74.9 60.01) rotate(-36.24)" style="fill:#07a4db; font-family:Rift-Light, Rift; font-size:12px;"><tspan x="0" y="0">1</tspan></text><text transform="translate(76.78 58.58) rotate(-33.62)" style="fill:#07a4db; font-family:Rift-Light, Rift; font-size:12px;"><tspan x="0" y="0">0</tspan></text><text transform="translate(81.07 55.76) rotate(-31.02)" style="fill:#07a4db; font-family:Rift-Light, Rift; font-size:12px;"><tspan x="0" y="0">1</tspan></text><text transform="translate(83.08 54.52) rotate(-28.43)" style="fill:#07a4db; font-family:Rift-Light, Rift; font-size:12px;"><tspan x="0" y="0">0</tspan></text><text transform="translate(87.58 52.08) rotate(-24.87)" style="fill:#07a4db; font-family:Rift-Light, Rift; font-size:12px;"><tspan x="0" y="0">0</tspan></text><text transform="translate(92.26 49.94) rotate(-22.43)" style="fill:#07a4db; font-family:Rift-Light, Rift; font-size:12px;"><tspan x="0" y="0"> </tspan></text><text transform="translate(93.94 49.21) rotate(-19.98)" style="fill:#07a4db; font-family:Rift-Light, Rift; font-size:12px;"><tspan x="0" y="0">0</tspan></text><text transform="translate(98.79 47.48) rotate(-17.33)" style="fill:#07a4db; font-family:Rift-Light, Rift; font-size:12px;"><tspan x="0" y="0">1</tspan></text><text transform="translate(101.05 46.77) rotate(-15.65)" style="fill:#07a4db; font-family:Rift-Light, Rift; font-size:12px;"><tspan x="0" y="0">1</tspan></text><text transform="translate(103.3 46.11) rotate(-13)" style="fill:#07a4db; font-family:Rift-Light, Rift; font-size:12px;"><tspan x="0" y="0">0</tspan></text><text transform="translate(108.3 44.95) rotate(-9.36)" style="fill:#07a4db; font-family:Rift-Light, Rift; font-size:12px;"><tspan x="0" y="0">0</tspan></text><text transform="translate(113.36 44.15) rotate(-6.72)" style="fill:#07a4db; font-family:Rift-Light, Rift; font-size:12px;"><tspan x="0" y="0">1</tspan></text><text transform="translate(115.7 43.84) rotate(-4.07)" style="fill:#07a4db; font-family:Rift-Light, Rift; font-size:12px;"><tspan x="0" y="0">0</tspan></text><text transform="translate(120.84 43.5) rotate(-1.42)" style="fill:#07a4db; font-family:Rift-Light, Rift; font-size:12px;"><tspan x="0" y="0">1</tspan></text><text transform="translate(123.23 43.44) rotate(.08)" style="fill:#07a4db; font-family:Rift-Light, Rift; font-size:12px;"><tspan x="0" y="0"> </tspan></text><text transform="translate(125.08 43.41) rotate(2.54)" style="fill:#07a4db; font-family:Rift-Light, Rift; font-size:12px;"><tspan x="0" y="0">0</tspan></text><text transform="translate(130.21 43.67) rotate(5.17)" style="fill:#07a4db; font-family:Rift-Light, Rift; font-size:12px;"><tspan x="0" y="0">1</tspan></text><text transform="translate(132.59 43.88) rotate(6.85)" style="fill:#07a4db; font-family:Rift-Light, Rift; font-size:12px;"><tspan x="0" y="0">1</tspan></text><text transform="translate(134.96 44.16) rotate(8.52)" style="fill:#07a4db; font-family:Rift-Light, Rift; font-size:12px;"><tspan x="0" y="0">1</tspan></text><text transform="translate(137.28 44.48) rotate(11.13)" style="fill:#07a4db; font-family:Rift-Light, Rift; font-size:12px;"><tspan x="0" y="0">0</tspan></text><text transform="translate(142.29 45.46) rotate(14.69)" style="fill:#07a4db; font-family:Rift-Light, Rift; font-size:12px;"><tspan x="0" y="0">0</tspan></text><text transform="translate(147.26 46.79) rotate(17.32)" style="fill:#07a4db; font-family:Rift-Light, Rift; font-size:12px;"><tspan x="0" y="0">1</tspan></text><text transform="translate(149.53 47.47) rotate(19.95)" style="fill:#07a4db; font-family:Rift-Light, Rift; font-size:12px;"><tspan x="0" y="0">0</tspan></text><text transform="translate(154.35 49.25) rotate(22.38)" style="fill:#07a4db; font-family:Rift-Light, Rift; font-size:12px;"><tspan x="0" y="0"> </tspan></text><text transform="translate(156.07 49.92) rotate(24.83)" style="fill:#07a4db; font-family:Rift-Light, Rift; font-size:12px;"><tspan x="0" y="0">0</tspan></text><text transform="translate(160.72 52.06) rotate(28.42)" style="fill:#07a4db; font-family:Rift-Light, Rift; font-size:12px;"><tspan x="0" y="0">0</tspan></text><text transform="translate(165.2 54.52) rotate(31.04)" style="fill:#07a4db; font-family:Rift-Light, Rift; font-size:12px;"><tspan x="0" y="0">1</tspan></text><text transform="translate(167.24 55.72) rotate(33.69)" style="fill:#07a4db; font-family:Rift-Light, Rift; font-size:12px;"><tspan x="0" y="0">0</tspan></text><text transform="translate(171.5 58.54) rotate(37.29)" style="fill:#07a4db; font-family:Rift-Light, Rift; font-size:12px;"><tspan x="0" y="0">0</tspan></text><text transform="translate(175.56 61.63) rotate(40.9)" style="fill:#07a4db; font-family:Rift-Light, Rift; font-size:12px;"><tspan x="0" y="0">0</tspan></text><text transform="translate(179.44 64.99) rotate(44.54)" style="fill:#07a4db; font-family:Rift-Light, Rift; font-size:12px;"><tspan x="0" y="0">0</tspan></text><text transform="translate(183.06 68.55) rotate(48.13)" style="fill:#07a4db; font-family:Rift-Light, Rift; font-size:12px;"><tspan x="0" y="0">0</tspan></text><text transform="translate(186.47 72.41) rotate(50.6)" style="fill:#07a4db; font-family:Rift-Light, Rift; font-size:12px;"><tspan x="0" y="0"> </tspan></text><text transform="translate(187.66 73.8) rotate(53.06)" style="fill:#07a4db; font-family:Rift-Light, Rift; font-size:12px;"><tspan x="0" y="0">0</tspan></text><text transform="translate(190.74 77.94) rotate(55.7)" style="fill:#07a4db; font-family:Rift-Light, Rift; font-size:12px;"><tspan x="0" y="0">1</tspan></text><text transform="translate(192.08 79.9) rotate(57.35)" style="fill:#07a4db; font-family:Rift-Light, Rift; font-size:12px;"><tspan x="0" y="0">1</tspan></text><text transform="translate(193.37 81.89) rotate(59.57)" style="fill:#07a4db; font-family:Rift-Light, Rift; font-size:12px;"><tspan x="0" y="0">0</tspan></text><text transform="translate(195.95 86.31) rotate(63.5)" style="fill:#07a4db; font-family:Rift-Light, Rift; font-size:12px;"><tspan x="0" y="0">0</tspan></text><text transform="translate(198.21 90.91) rotate(66.1)" style="fill:#07a4db; font-family:Rift-Light, Rift; font-size:12px;"><tspan x="0" y="0">1</tspan></text><text transform="translate(199.2 93.06) rotate(68.74)" style="fill:#07a4db; font-family:Rift-Light, Rift; font-size:12px;"><tspan x="0" y="0">0</tspan></text><text transform="translate(201.04 97.85) rotate(71.37)" style="fill:#07a4db; font-family:Rift-Light, Rift; font-size:12px;"><tspan x="0" y="0">1</tspan></text><text transform="translate(201.8 100.11) rotate(72.88)" style="fill:#07a4db; font-family:Rift-Light, Rift; font-size:12px;"><tspan x="0" y="0"> </tspan></text><text transform="translate(202.38 101.87) rotate(75.36)" style="fill:#07a4db; font-family:Rift-Light, Rift; font-size:12px;"><tspan x="0" y="0">0</tspan></text><text transform="translate(203.65 106.84) rotate(78)" style="fill:#07a4db; font-family:Rift-Light, Rift; font-size:12px;"><tspan x="0" y="0">1</tspan></text><text transform="translate(204.15 109.19) rotate(79.71)" style="fill:#07a4db; font-family:Rift-Light, Rift; font-size:12px;"><tspan x="0" y="0">1</tspan></text><text transform="translate(204.6 111.5) rotate(82.36)" style="fill:#07a4db; font-family:Rift-Light, Rift; font-size:12px;"><tspan x="0" y="0">0</tspan></text><text transform="translate(205.28 116.56) rotate(85.97)" style="fill:#07a4db; font-family:Rift-Light, Rift; font-size:12px;"><tspan x="0" y="0">0</tspan></text><text transform="translate(205.61 121.68) rotate(88.6)" style="fill:#07a4db; font-family:Rift-Light, Rift; font-size:12px;"><tspan x="0" y="0">1</tspan></text><text transform="translate(205.67 124.08) rotate(90.29)" style="fill:#07a4db; font-family:Rift-Light, Rift; font-size:12px;"><tspan x="0" y="0">1</tspan></text><text transform="translate(205.66 126.48) rotate(91.98)" style="fill:#07a4db; font-family:Rift-Light, Rift; font-size:12px;"><tspan x="0" y="0">1</tspan></text><text transform="translate(205.58 128.86) rotate(93.47)" style="fill:#07a4db; font-family:Rift-Light, Rift; font-size:12px;"><tspan x="0" y="0"> </tspan></text><text transform="translate(205.5 130.7) rotate(95.92)" style="fill:#07a4db; font-family:Rift-Light, Rift; font-size:12px;"><tspan x="0" y="0">0</tspan></text><text transform="translate(204.94 135.79) rotate(98.54)" style="fill:#07a4db; font-family:Rift-Light, Rift; font-size:12px;"><tspan x="0" y="0">1</tspan></text><text transform="translate(204.59 138.15) rotate(100.21)" style="fill:#07a4db; font-family:Rift-Light, Rift; font-size:12px;"><tspan x="0" y="0">1</tspan></text><text transform="translate(204.2 140.49) rotate(102.83)" style="fill:#07a4db; font-family:Rift-Light, Rift; font-size:12px;"><tspan x="0" y="0">0</tspan></text><text transform="translate(203.07 145.47) rotate(106.4)" style="fill:#07a4db; font-family:Rift-Light, Rift; font-size:12px;"><tspan x="0" y="0">0</tspan></text><text transform="translate(201.59 150.4) rotate(109.03)" style="fill:#07a4db; font-family:Rift-Light, Rift; font-size:12px;"><tspan x="0" y="0">1</tspan></text><text transform="translate(200.81 152.66) rotate(110.69)" style="fill:#07a4db; font-family:Rift-Light, Rift; font-size:12px;"><tspan x="0" y="0">1</tspan></text><text transform="translate(199.97 154.89) rotate(112.36)" style="fill:#07a4db; font-family:Rift-Light, Rift; font-size:12px;"><tspan x="0" y="0">1</tspan></text><circle cx="124.59" cy="87.64" r="32.93" style="fill:#07a4db;"/><g style="mask:url(#b);"><circle cx="123.74" cy="196.34" r="65.85" style="fill:#07a4db;"/></g></svg>