<?xml version="1.0" encoding="UTF-8"?><svg id="a" xmlns="http://www.w3.org/2000/svg" viewBox="0 0 227.9 262"><g><line x1="113.95" y1="5.55" x2="113.95" y2="259" style="fill:none; stroke:#f9aa2b; stroke-linecap:round; stroke-linejoin:round; stroke-width:6px;"/><path d="M91.78,37.13c1.07,.69,2.5,.37,3.19-.71L113.95,6.61l18.99,29.81c.69,1.08,2.12,1.39,3.19,.71,1.07-.69,1.39-2.12,.71-3.19L115.9,1.07c-.42-.67-1.16-1.07-1.95-1.07s-1.52,.4-1.95,1.07l-20.93,32.87c-.24,.38-.36,.81-.36,1.24,0,.76,.38,1.51,1.07,1.95Z" style="fill:#f9aa2b;"/></g><g><polyline points="222.35 104.48 132.69 104.48 132.69 258.92" style="fill:none; stroke:#f9aa2b; stroke-linecap:round; stroke-linejoin:round; stroke-width:6px;"/><path d="M190.77,82.31c-.69,1.07-.37,2.5,.71,3.19l29.81,18.99-29.81,18.99c-1.08,.69-1.39,2.12-.71,3.19,.69,1.07,2.12,1.39,3.19,.71l32.87-20.93c.67-.42,1.07-1.16,1.07-1.95s-.4-1.52-1.07-1.95l-32.87-20.93c-.38-.24-.81-.36-1.24-.36-.76,0-1.51,.38-1.95,1.07Z" style="fill:#f9aa2b;"/></g><g><polyline points="5.55 104.5 95.21 104.82 95.21 258.92" style="fill:none; stroke:#f9aa2b; stroke-linecap:round; stroke-linejoin:round; stroke-width:6px;"/><path d="M37.05,126.79c.69-1.07,.38-2.5-.7-3.19L6.61,104.5l29.88-18.88c1.08-.68,1.4-2.11,.72-3.19-.68-1.08-2.12-1.39-3.19-.72L1.08,102.54C.41,102.96,0,103.69,0,104.48s.4,1.53,1.06,1.95l32.8,21.05c.38,.24,.81,.36,1.24,.37,.76,0,1.51-.37,1.96-1.06Z" style="fill:#f9aa2b;"/></g></svg>