<?xml version="1.0" encoding="UTF-8"?><svg id="a" xmlns="http://www.w3.org/2000/svg" viewBox="0 0 252 214.65"><polygon points="251 213.65 2 214.65 1 140.65 51.04 124.19 101.04 97.36 151.04 86.47 201.04 62.7 251.04 1.21 251 213.65" style="fill:#3ac171; opacity:.05;"/><line x1="250.5" y1="214.09" x2="1.5" y2="214.09" style="fill:#fff; stroke:#d8d8d8; stroke-linecap:round; stroke-linejoin:round;"/><polyline points="1 141.21 51 123.99 101 97.15 151 86.26 201 62.49 251 1" style="fill:none; stroke:#3ac171; stroke-linecap:round; stroke-linejoin:round; stroke-width:2px;"/><g><line x1="1" y1="141.21" x2="1" y2="147.21" style="fill:none; stroke:#3ac171; stroke-linecap:round; stroke-miterlimit:10; stroke-width:.5px;"/><line x1="1" y1="159.1" x2="1" y2="200.71" style="fill:none; stroke:#3ac171; stroke-dasharray:0 0 11.89 11.89; stroke-linecap:round; stroke-miterlimit:10; stroke-width:.5px;"/><line x1="1" y1="206.65" x2="1" y2="212.65" style="fill:none; stroke:#3ac171; stroke-linecap:round; stroke-miterlimit:10; stroke-width:.5px;"/></g><g><line x1="51" y1="123.99" x2="51" y2="129.99" style="fill:none; stroke:#3ac171; stroke-linecap:round; stroke-miterlimit:10; stroke-width:.5px;"/><line x1="51" y1="140.94" x2="51" y2="201.17" style="fill:none; stroke:#3ac171; stroke-dasharray:0 0 10.95 10.95; stroke-linecap:round; stroke-miterlimit:10; stroke-width:.5px;"/><line x1="51" y1="206.65" x2="51" y2="212.65" style="fill:none; stroke:#3ac171; stroke-linecap:round; stroke-miterlimit:10; stroke-width:.5px;"/></g><g><line x1="101" y1="97.15" x2="101" y2="103.15" style="fill:none; stroke:#3ac171; stroke-linecap:round; stroke-miterlimit:10; stroke-width:.5px;"/><line x1="101" y1="114.65" x2="101" y2="200.9" style="fill:none; stroke:#3ac171; stroke-dasharray:0 0 11.5 11.5; stroke-linecap:round; stroke-miterlimit:10; stroke-width:.5px;"/><line x1="101" y1="206.65" x2="101" y2="212.65" style="fill:none; stroke:#3ac171; stroke-linecap:round; stroke-miterlimit:10; stroke-width:.5px;"/></g><g><line x1="151" y1="212.65" x2="151" y2="206.65" style="fill:none; stroke:#3ac171; stroke-linecap:round; stroke-miterlimit:10; stroke-width:.5px;"/><line x1="151" y1="193.94" x2="151" y2="98.62" style="fill:none; stroke:#3ac171; stroke-dasharray:0 0 12.71 12.71; stroke-linecap:round; stroke-miterlimit:10; stroke-width:.5px;"/><line x1="151" y1="92.26" x2="151" y2="86.26" style="fill:none; stroke:#3ac171; stroke-linecap:round; stroke-miterlimit:10; stroke-width:.5px;"/></g><g><line x1="201" y1="62.49" x2="201" y2="68.49" style="fill:none; stroke:#3ac171; stroke-linecap:round; stroke-miterlimit:10; stroke-width:.5px;"/><line x1="201" y1="81.05" x2="201" y2="200.37" style="fill:none; stroke:#3ac171; stroke-dasharray:0 0 12.56 12.56; stroke-linecap:round; stroke-miterlimit:10; stroke-width:.5px;"/><line x1="201" y1="206.65" x2="201" y2="212.65" style="fill:none; stroke:#3ac171; stroke-linecap:round; stroke-miterlimit:10; stroke-width:.5px;"/></g><g><line x1="251" y1="1" x2="251" y2="7" style="fill:none; stroke:#3ac171; stroke-linecap:round; stroke-miterlimit:10; stroke-width:.5px;"/><line x1="251" y1="18.74" x2="251" y2="200.78" style="fill:none; stroke:#3ac171; stroke-dasharray:0 0 11.74 11.74; stroke-linecap:round; stroke-miterlimit:10; stroke-width:.5px;"/><line x1="251" y1="206.65" x2="251" y2="212.65" style="fill:none; stroke:#3ac171; stroke-linecap:round; stroke-miterlimit:10; stroke-width:.5px;"/></g></svg>