<svg xmlns="http://www.w3.org/2000/svg" width="214" height="63.239" viewBox="0 0 214 63.239"><defs><style>.a{fill:#7bb7a7;}.b{fill:#00936e;}.c{fill:#008c7e;}.d,.h{fill:#14d9c5;}.e{fill:#14d9b1;}.f{fill:#032825;}.g{fill:#30ffeb;}.h{opacity:0.8;}</style></defs><g transform="translate(-6283.319 4506.754)"><g transform="translate(6283.319 -4506.754)"><path class="a" d="M6327.721-4465.379v42.257H6329v-37.135h3.841v28.171h1.281v-33.293Z" transform="translate(-6315.353 4476.903)"/><path class="b" d="M6283.319-4426.641v40.925h90.619v-40.925Zm87.7,39.6a1.6,1.6,0,0,1-1.595-1.6,1.6,1.6,0,0,1,1.595-1.595,1.6,1.6,0,0,1,1.595,1.595A1.6,1.6,0,0,1,6371.015-4387.044Zm0-38.268a1.6,1.6,0,0,1,1.595,1.595,1.6,1.6,0,0,1-1.595,1.595,1.6,1.6,0,0,1-1.595-1.595A1.6,1.6,0,0,1,6371.015-4425.312Zm-84.773,38.268a1.6,1.6,0,0,1-1.595-1.6,1.6,1.6,0,0,1,1.595-1.595,1.6,1.6,0,0,1,1.595,1.595A1.6,1.6,0,0,1,6286.242-4387.044Zm0-38.268a1.6,1.6,0,0,1,1.595,1.595,1.6,1.6,0,0,1-1.595,1.595,1.6,1.6,0,0,1-1.595-1.595A1.6,1.6,0,0,1,6286.242-4425.312Z" transform="translate(-6283.319 4448.956)"/><path class="c" d="M6283.319-4426.641v40.925h90.619v-40.925Zm2.923,39.6a1.6,1.6,0,0,1-1.595-1.6,1.6,1.6,0,0,1,1.595-1.595,1.6,1.6,0,0,1,1.595,1.595A1.6,1.6,0,0,1,6286.242-4387.044Zm0-35.079a1.6,1.6,0,0,1-1.595-1.595,1.6,1.6,0,0,1,1.595-1.595,1.6,1.6,0,0,1,1.595,1.595A1.6,1.6,0,0,1,6286.242-4422.123Zm83.668-2.744a1.59,1.59,0,0,1,1.1-.445,1.588,1.588,0,0,1,1.195.541,1.588,1.588,0,0,1,.4,1.054,1.589,1.589,0,0,1-.4,1.054,1.59,1.59,0,0,1-1.195.541,1.591,1.591,0,0,1-1.1-.445,1.593,1.593,0,0,1-.49-1.15A1.591,1.591,0,0,1,6369.911-4424.867Zm1.1,37.823a1.815,1.815,0,0,1-.232-.016,1.6,1.6,0,0,1-1.362-1.579,1.65,1.65,0,0,1,.022-.271,1.6,1.6,0,0,1,.468-.878,1.59,1.59,0,0,1,1.1-.445,1.59,1.59,0,0,1,1.195.541,1.584,1.584,0,0,1,.369.746,1.489,1.489,0,0,1,.031.308,1.592,1.592,0,0,1-.455,1.114A1.6,1.6,0,0,1,6371.015-4387.044Z" transform="translate(-6283.319 4448.956)"/><path class="d" d="M6318.6-4426.641h-2.3v11.1l27.546,27.551v2.278h2.3v-3.229L6318.6-4416.5Z" transform="translate(-6307.111 4448.956)"/><path class="d" d="M6352.285-4426.641h-2.3v6.373l27.551,27.556v7h2.3v-7.956l-27.551-27.551Z" transform="translate(-6331.416 4448.956)"/><path class="d" d="M6389.9-4426.641h-2.3v2.539l27.546,27.551v10.835h2.309v-11.79l-27.556-27.554Z" transform="translate(-6358.551 4448.956)"/><path class="d" d="M6463.666-4421.456a4.325,4.325,0,0,0,4.321-4.328,4.235,4.235,0,0,0-.086-.857h-8.482a4.27,4.27,0,0,0-.086.857A4.332,4.332,0,0,0,6463.666-4421.456Z" transform="translate(-6410.306 4448.956)"/><path class="d" d="M6502.424-4419.578v-7.063h-2.3v7.063a4.318,4.318,0,0,0-3.178,4.156,4.332,4.332,0,0,0,4.332,4.328,4.326,4.326,0,0,0,4.326-4.328A4.315,4.315,0,0,0,6502.424-4419.578Z" transform="translate(-6437.441 4448.956)"/><rect class="d" width="2.309" height="40.925" transform="translate(73.812 22.315)"/><path class="e" d="M6588.857-4291.009a1.592,1.592,0,0,1-.455,1.114,1.6,1.6,0,0,1-1.14.481,1.809,1.809,0,0,1-.232-.016,1.6,1.6,0,0,1-1.362-1.579,1.65,1.65,0,0,1,.022-.271,4.306,4.306,0,0,0-2.636,3.194h7.131v-2.413a4.3,4.3,0,0,0-1.359-.818A1.456,1.456,0,0,1,6588.857-4291.009Z" transform="translate(-6499.566 4351.325)"/><path class="d" d="M6596.5-4379.392v-32.97a1.59,1.59,0,0,1-1.195.541,1.591,1.591,0,0,1-1.1-.445v32.779a1.59,1.59,0,0,1,1.1-.445A1.59,1.59,0,0,1,6596.5-4379.392Z" transform="translate(-6507.605 4438.654)"/><path class="e" d="M6594.2-4426.641v1.774a1.59,1.59,0,0,1,1.1-.445,1.588,1.588,0,0,1,1.195.541v-.713h1.728v-1.156Z" transform="translate(-6507.605 4448.956)"/><path class="f" d="M6287.58-4424.787a2.41,2.41,0,0,0-2.407,2.407,2.41,2.41,0,0,0,2.407,2.407,2.41,2.41,0,0,0,2.407-2.407A2.41,2.41,0,0,0,6287.58-4424.787Zm0,4a1.6,1.6,0,0,1-1.595-1.595,1.6,1.6,0,0,1,1.595-1.595,1.6,1.6,0,0,1,1.6,1.595A1.6,1.6,0,0,1,6287.58-4420.786Z" transform="translate(-6284.656 4447.618)"/><rect class="f" width="78.993" height="29.232" transform="translate(5.847 28.161)"/><rect class="g" width="70.157" height="20.462" transform="translate(10.231 32.546)"/><path class="f" d="M6591.927-4424.787a2.41,2.41,0,0,0-2.407,2.407,2.41,2.41,0,0,0,2.407,2.407,2.41,2.41,0,0,0,2.407-2.407A2.41,2.41,0,0,0,6591.927-4424.787Zm0,4a1.6,1.6,0,0,1-1.595-1.595,1.6,1.6,0,0,1,1.595-1.595,1.6,1.6,0,0,1,1.595,1.595A1.6,1.6,0,0,1,6591.927-4420.786Z" transform="translate(-6504.231 4447.618)"/><path class="f" d="M6591.927-4298.85a2.41,2.41,0,0,0-2.407,2.407,2.41,2.41,0,0,0,2.407,2.407,2.41,2.41,0,0,0,2.407-2.407A2.41,2.41,0,0,0,6591.927-4298.85Zm0,4a1.6,1.6,0,0,1-1.595-1.595,1.6,1.6,0,0,1,1.595-1.595,1.6,1.6,0,0,1,1.595,1.595A1.6,1.6,0,0,1,6591.927-4294.849Z" transform="translate(-6504.231 4356.76)"/><path class="f" d="M6287.58-4298.85a2.41,2.41,0,0,0-2.407,2.407,2.41,2.41,0,0,0,2.407,2.407,2.409,2.409,0,0,0,2.407-2.407A2.41,2.41,0,0,0,6287.58-4298.85Zm0,4a1.6,1.6,0,0,1-1.595-1.595,1.6,1.6,0,0,1,1.595-1.595,1.6,1.6,0,0,1,1.6,1.595A1.6,1.6,0,0,1,6287.58-4294.849Z" transform="translate(-6284.656 4356.76)"/><rect class="f" width="2.923" height="2.923" transform="translate(17.539 44.239)"/><rect class="f" width="2.923" height="2.923" transform="translate(20.463 41.315)"/><rect class="f" width="2.923" height="2.923" transform="translate(23.386 38.392)"/><rect class="f" width="2.923" height="2.923" transform="translate(26.309 38.392)"/><rect class="f" width="2.923" height="2.923" transform="translate(29.232 38.392)"/><rect class="f" width="2.923" height="2.923" transform="translate(32.155 38.392)"/><rect class="f" width="2.923" height="2.923" transform="translate(35.079 41.315)"/><rect class="f" width="2.923" height="2.923" transform="translate(38.002 44.239)"/><rect class="f" width="2.923" height="2.923" transform="translate(49.695 44.239)"/><rect class="f" width="2.923" height="2.923" transform="translate(52.618 41.315)"/><rect class="f" width="2.923" height="2.923" transform="translate(55.541 38.392)"/><rect class="f" width="2.923" height="2.923" transform="translate(58.464 38.392)"/><rect class="f" width="2.923" height="2.923" transform="translate(61.387 38.392)"/><rect class="f" width="2.923" height="2.923" transform="translate(64.311 38.392)"/><rect class="f" width="2.923" height="2.923" transform="translate(67.234 41.315)"/><rect class="f" width="2.923" height="2.923" transform="translate(70.157 44.239)"/><path class="h" d="M6326.979-4490.107h-.245v-10.884a5.763,5.763,0,0,0-5.763-5.762h0a5.763,5.763,0,0,0-5.762,5.762v10.884h-.245a1.036,1.036,0,0,0-1.036,1.036v1.526h14.085v-1.526A1.036,1.036,0,0,0,6326.979-4490.107Z" transform="translate(-6305.403 4506.754)"/></g><g transform="translate(6386.523 -4475.985)"><path class="f" d="M6673.115-4371.49l-8.059.387-.064-7.446h-3.707l-.226,7.06h-7.221l.612-22.662,7.672.354-.483,11.573h3.578l.033-12.443,7.35.193Z" transform="translate(-6653.838 4395.12)"/><path class="f" d="M6747.046-4379.028a11.691,11.691,0,0,1-.338,2.829,11.071,11.071,0,0,1-.975,2.554,10.589,10.589,0,0,1-1.547,2.185,9.85,9.85,0,0,1-2.047,1.7,9.981,9.981,0,0,1-2.474,1.1,9.958,9.958,0,0,1-2.837.4,10.133,10.133,0,0,1-2.764-.371,10.506,10.506,0,0,1-2.458-1.04,9.887,9.887,0,0,1-2.071-1.612,10.056,10.056,0,0,1-1.58-2.1,10.811,10.811,0,0,1-1.016-2.475,10.367,10.367,0,0,1-.362-2.756,11.224,11.224,0,0,1,.338-2.748,11.152,11.152,0,0,1,.975-2.539,10.949,10.949,0,0,1,1.539-2.191,10.143,10.143,0,0,1,2.023-1.725,9.723,9.723,0,0,1,2.425-1.128,9.3,9.3,0,0,1,2.756-.4,12.007,12.007,0,0,1,4.263.726,9.249,9.249,0,0,1,3.288,2.071,9.287,9.287,0,0,1,2.112,3.256A11.6,11.6,0,0,1,6747.046-4379.028Zm-7.156.419a4.551,4.551,0,0,0-.2-1.346,3.709,3.709,0,0,0-.589-1.161,3.022,3.022,0,0,0-.959-.822,2.684,2.684,0,0,0-1.313-.314,3.215,3.215,0,0,0-1.354.273,3.1,3.1,0,0,0-1.023.75,3.278,3.278,0,0,0-.653,1.112,4,4,0,0,0-.226,1.346,4.913,4.913,0,0,0,.193,1.354,4.024,4.024,0,0,0,.58,1.225,3.09,3.09,0,0,0,.959.886,2.564,2.564,0,0,0,1.33.338,3.037,3.037,0,0,0,1.362-.3,3.087,3.087,0,0,0,1.024-.806,3.692,3.692,0,0,0,.645-1.169A4.205,4.205,0,0,0,6739.89-4378.609Z" transform="translate(-6706.316 4391.279)"/><path class="f" d="M6818.077-4381.1l-.677,7.157-13.571,1.063q.1-5.625.218-11.186t.3-11.186h8.381q-.371,3.53-.709,7.052t-.484,7.1q.758.033,1.5.032h1.5q.9,0,1.773-.016T6818.077-4381.1Z" transform="translate(-6762.05 4395.537)"/><path class="f" d="M6872.673-4394.9q-.1,1.515-.177,3t-.209,3l-6.834.355-.161,2.031h4.8l-.354,5-4.835.161-.161,2.354h6.834q-.1,1.773-.2,3.521t-.186,3.506l-13.893.322.515-23.242Z" transform="translate(-6800.625 4395.286)"/><path class="f" d="M6929.867-4394.922l-6.286,10.928,5.352,9.509-6.737,2.1-2.9-6.577-3.417,6.608-6.963-2.514,5.931-9.349-5.416-9.832,7.382-1.773,2.643,6.479,2.8-6.479Z" transform="translate(-6837.865 4395.955)"/><path class="f" d="M7003.1-4388.166a7.651,7.651,0,0,1-.467,2.772,6.764,6.764,0,0,1-1.281,2.112,7.741,7.741,0,0,1-1.91,1.531,11.922,11.922,0,0,1-2.345,1.023,15.725,15.725,0,0,1-2.586.58,20.981,20.981,0,0,1-2.628.2v7.511h-7.511q0-3.691.016-7.35t.048-7.382q.032-1.966.016-3.933t.081-3.965a29.921,29.921,0,0,1,4.126-.918,28.957,28.957,0,0,1,4.255-.307,15.473,15.473,0,0,1,2.482.2,12.055,12.055,0,0,1,2.377.637,10.579,10.579,0,0,1,2.111,1.088,7.257,7.257,0,0,1,1.685,1.555,7.242,7.242,0,0,1,1.12,2.055A7.666,7.666,0,0,1,7003.1-4388.166Zm-7.156.548a2.119,2.119,0,0,0-.637-1.636,2.338,2.338,0,0,0-1.652-.588,4.564,4.564,0,0,0-.7.057q-.363.056-.685.137l-.193,4.707a3.075,3.075,0,0,0,.435.032h.436a3.3,3.3,0,0,0,1.12-.193,3,3,0,0,0,.959-.557,2.8,2.8,0,0,0,.669-.854A2.4,2.4,0,0,0,6995.944-4387.617Z" transform="translate(-6892.305 4396.289)"/></g></g></svg>